<?xml version="1.0" standalone="no"?>
<!DOCTYPE svg PUBLIC "-//W3C//DTD SVG 20010904//EN"
 "http://www.w3.org/TR/2001/REC-SVG-20010904/DTD/svg10.dtd">
<svg version="1.0" xmlns="http://www.w3.org/2000/svg"
 width="1024.000000pt" height="1024.000000pt" viewBox="0 0 1024.000000 1024.000000"
 preserveAspectRatio="xMidYMid meet">

<g transform="translate(0.000000,1024.000000) scale(0.100000,-0.100000)"
fill="#ffff00" stroke="none">
<path d="M0 9071 c0 -763 3 -1172 10 -1176 5 -3 21 6 36 20 14 14 29 23 34 20
5 -3 12 0 16 6 5 8 3 9 -6 4 -9 -5 -11 -4 -6 3 4 7 14 12 22 12 8 0 14 5 14
11 0 6 7 9 15 5 8 -3 15 -2 15 2 0 12 61 42 72 35 7 -3 8 -1 4 5 -6 10 9 19
87 50 15 7 27 16 27 21 0 6 6 8 14 5 7 -3 21 7 30 21 10 15 23 24 30 22 7 -3
23 8 35 24 13 16 27 26 32 23 5 -3 12 2 15 10 3 9 10 13 15 10 14 -8 11 3 -6
20 -18 17 -24 51 -10 51 6 0 9 -6 9 -12 -2 -15 12 -17 21 -4 3 5 -6 21 -19 34
-16 16 -23 32 -19 45 4 16 1 21 -15 19 -14 -1 -18 -6 -14 -22 3 -11 1 -16 -4
-12 -9 9 -10 13 -13 41 0 7 -11 16 -23 20 -13 3 -19 9 -13 13 12 10 15 73 3
73 -4 0 -6 11 -4 24 3 17 0 23 -8 20 -7 -3 -21 5 -32 17 -10 13 -13 19 -6 15
18 -11 26 18 12 45 -11 19 -10 21 4 16 14 -6 15 -3 5 14 -6 11 -17 18 -24 15
-8 -3 -16 5 -19 20 -4 14 -11 22 -16 19 -5 -3 -11 -1 -15 5 -4 6 -11 8 -16 5
-5 -4 -4 6 1 21 6 15 8 34 5 42 -3 7 4 26 15 42 11 15 20 33 20 38 0 6 6 13
13 16 6 3 2 3 -10 0 -14 -3 -23 -1 -23 6 0 7 -7 10 -15 6 -8 -3 -15 -2 -15 3
0 5 15 12 32 16 l33 8 -29 6 c-16 3 -31 13 -33 21 -4 13 -3 13 6 0 9 -13 11
-13 11 2 0 9 -5 29 -10 44 -8 19 -7 31 2 42 11 13 11 14 0 8 -11 -7 -12 -4 -3
13 7 11 17 21 22 21 6 0 9 6 6 14 -7 17 11 36 35 36 10 0 18 7 18 15 0 8 3 14
8 14 17 -3 33 2 29 9 -11 17 15 54 48 68 19 8 35 18 35 24 0 5 15 16 34 25 20
10 37 26 40 41 4 15 14 24 26 24 10 0 21 9 25 19 4 13 12 17 25 14 14 -4 20 0
20 12 0 14 -3 15 -15 5 -8 -7 -15 -9 -15 -4 1 14 30 49 38 47 4 -2 7 2 7 7 0
6 6 15 14 19 7 5 10 14 7 20 -4 6 -3 10 3 9 15 -4 71 63 71 85 0 9 5 17 10 17
6 0 10 -5 10 -11 0 -5 5 -7 10 -4 6 4 8 11 5 16 -6 8 8 13 28 10 4 -1 3 8 -3
19 -9 17 -6 24 15 44 27 25 32 42 13 48 -7 3 -5 11 7 25 10 12 19 34 21 49 2
15 9 31 16 35 7 5 9 9 4 9 -4 0 -1 10 7 23 8 13 21 42 28 65 6 23 15 39 19 37
7 -4 45 104 42 118 -1 4 2 7 7 7 6 0 9 8 9 18 -1 9 2 30 5 45 7 26 6 27 -13
17 -20 -11 -21 -10 -10 10 7 12 18 19 26 16 8 -3 14 -2 14 3 0 5 -13 11 -30
15 -21 4 -30 11 -30 26 0 12 7 20 18 21 11 1 9 4 -8 9 -14 4 -242 8 -507 9
l-483 1 0 -1169z"/>
<path d="M2212 8577 c-46 -55 -59 -194 -29 -297 26 -86 85 -178 172 -265 180
-181 462 -271 767 -245 123 10 163 16 308 44 144 27 836 166 1005 202 94 19
242 48 330 65 88 16 250 47 360 69 292 57 349 63 504 57 302 -13 540 -115 681
-292 100 -126 151 -280 152 -460 1 -226 -59 -380 -230 -593 -41 -51 -85 -101
-99 -111 -23 -19 -23 -21 -10 -48 32 -60 327 -341 428 -406 l26 -17 84 96
c179 205 290 371 352 530 135 344 128 696 -21 1041 -35 81 -144 263 -157 263
-4 0 2 -12 13 -27 10 -16 34 -57 54 -93 152 -279 191 -618 109 -943 -27 -108
-77 -234 -88 -223 -3 3 -39 -43 -81 -102 -69 -97 -115 -156 -239 -302 -36 -42
-43 -47 -54 -34 -11 13 -10 15 3 12 32 -6 212 243 232 322 l7 25 -18 -25 c-29
-41 -212 -226 -239 -240 -22 -13 -27 -11 -59 20 -36 35 -65 46 -76 29 -6 -11
-79 80 -79 99 0 6 30 47 66 93 36 46 77 106 91 133 30 61 27 58 -75 -69 -75
-94 -145 -168 -127 -135 4 8 24 35 43 60 29 37 25 34 -27 -18 l-63 -63 23 -20
c27 -24 37 -24 41 -1 3 13 11 6 32 -26 16 -23 27 -45 24 -47 -3 -3 -29 0 -59
5 -30 6 -67 8 -84 4 -27 -6 -28 -5 -16 10 8 9 20 15 28 12 7 -3 13 -1 13 5 0
6 5 7 10 4 15 -9 12 3 -7 36 -10 16 -23 29 -31 29 -22 0 -13 12 100 135 83 90
117 135 148 198 100 204 116 452 42 673 -16 48 -23 79 -15 72 10 -8 13 -5 14
13 0 15 22 -20 60 -96 32 -66 59 -125 59 -131 0 -6 9 -19 20 -29 19 -17 20
-17 27 1 14 33 7 177 -12 244 -10 36 -19 79 -22 95 l-4 30 41 -45 c31 -33 43
-41 50 -31 20 34 50 -25 85 -174 27 -116 41 -155 54 -155 15 0 22 31 32 145 6
61 13 137 16 171 6 74 -7 103 -98 219 -123 158 -208 238 -262 249 -17 4 -61
22 -98 41 -37 19 -101 43 -142 55 -42 11 -107 32 -144 46 -143 55 -217 74
-335 90 -146 19 -350 15 -448 -10 -86 -21 -362 -71 -475 -85 -49 -7 -182 -32
-295 -57 -113 -24 -315 -65 -450 -89 -135 -25 -283 -54 -330 -65 -47 -11 -116
-25 -155 -31 -133 -19 -180 -28 -260 -48 -194 -49 -430 -65 -510 -35 -22 8
-76 28 -120 43 -44 16 -102 38 -128 50 -27 12 -53 21 -58 21 -19 0 -8 -29 29
-76 21 -27 41 -57 45 -66 8 -23 -23 -32 -79 -23 -24 3 -44 3 -44 -2 0 -4 29
-24 64 -43 36 -19 64 -36 62 -37 -8 -8 -144 61 -220 112 -93 61 -143 113 -184
190 -24 45 -27 61 -28 163 0 61 -3 114 -6 117 -3 3 -10 -1 -16 -8z m3198 -72
c6 -4 6 -15 0 -30 -9 -24 -8 -25 33 -25 23 0 92 3 153 6 94 6 111 9 110 23 -2
28 123 21 224 -13 170 -57 328 -142 330 -178 0 -13 -52 -8 -95 8 -62 24 -168
53 -190 53 -11 0 24 -16 77 -34 133 -46 221 -91 279 -143 84 -75 151 -190 126
-216 -7 -8 -29 9 -76 57 -60 63 -186 165 -203 167 -5 0 -18 10 -29 21 -59 59
-290 134 -454 147 -80 6 -85 7 -45 13 l45 6 -51 1 c-28 1 -80 -1 -115 -5 -52
-6 -58 -8 -34 -13 23 -5 13 -8 -45 -15 -57 -7 -68 -10 -45 -14 20 -4 -37 -18
-185 -44 -208 -37 -1032 -198 -1215 -237 -117 -25 -520 -98 -752 -137 -65 -11
-98 -20 -90 -26 20 -14 -244 0 -303 17 l-55 15 45 -1 c25 0 63 0 85 2 34 1 29
4 -35 15 -82 15 -157 40 -90 30 19 -3 98 -7 175 -10 l140 -4 -95 13 c-99 15
-167 34 -123 35 33 1 37 20 6 26 -59 13 -113 37 -113 51 0 8 6 14 13 14 7 1 5
6 -5 14 -32 24 -19 24 55 4 39 -11 133 -26 207 -34 74 -7 137 -13 140 -13 3
-1 -2 -6 -10 -11 -23 -15 83 -11 170 6 41 8 93 19 115 23 22 4 59 13 82 20 23
6 89 20 145 31 57 10 144 28 193 40 50 12 137 30 195 40 58 11 152 31 210 45
58 14 139 32 181 40 169 31 337 83 367 112 7 7 23 13 35 14 12 0 29 2 37 4 91
18 136 29 149 35 15 7 180 46 226 53 44 6 96 8 105 2z m391 -221 c176 -29 379
-114 441 -183 l23 -25 -35 23 c-136 88 -289 138 -555 180 l-120 19 76 1 c41 0
118 -6 170 -15z"/>
<path d="M5360 8109 c-75 -12 -900 -175 -1595 -315 -604 -121 -801 -154 -919
-154 -84 0 -202 28 -273 63 -56 29 -129 103 -139 142 -10 41 1 39 31 -5 29
-42 81 -87 125 -110 29 -15 19 -4 -33 34 -21 16 -54 51 -72 80 -18 28 -41 59
-52 68 -23 21 -86 48 -110 47 -13 0 -11 -3 7 -11 21 -9 22 -12 8 -15 -23 -6
-23 -10 3 -58 37 -69 107 -152 155 -183 82 -55 125 -62 364 -58 227 3 356 20
625 82 61 14 178 38 260 53 138 26 702 139 1060 211 590 120 546 113 735 114
164 0 181 -1 265 -27 116 -36 208 -79 261 -122 46 -38 99 -114 110 -159 6 -25
5 -28 -15 -21 -16 5 -20 3 -15 -9 12 -30 -8 -16 -70 50 -40 43 -74 70 -101 79
-45 15 -55 12 -55 -16 0 -16 -7 -19 -48 -19 -26 0 -92 12 -147 27 -80 21 -121
26 -205 26 -114 -1 -286 -22 -433 -54 -51 -11 -115 -24 -143 -29 -28 -4 -69
-13 -90 -19 -22 -6 -63 -13 -93 -16 -30 -3 -77 -12 -105 -20 -45 -12 -198 -43
-251 -50 -11 -2 -47 -10 -80 -18 -33 -8 -116 -25 -185 -37 -69 -11 -156 -28
-195 -36 -115 -26 -203 -43 -330 -64 -66 -11 -178 -32 -250 -46 -93 -19 -175
-27 -291 -31 -151 -5 -170 -3 -275 22 -137 32 -303 82 -342 102 -16 8 -38 16
-48 18 -19 4 -18 2 2 -28 13 -18 53 -62 91 -99 94 -93 92 -101 -24 -96 -77 3
-103 9 -153 33 -77 38 -159 119 -193 192 -24 51 -27 69 -26 156 1 53 -2 97 -7
97 -5 0 -19 -19 -31 -42 -19 -36 -23 -58 -23 -138 0 -89 2 -100 36 -170 123
-257 397 -404 792 -426 202 -11 296 3 1162 181 1344 276 1500 304 1589 291 59
-9 96 -42 96 -86 0 -66 -46 -127 -295 -395 -62 -66 -138 -150 -171 -186 -103
-116 -536 -591 -614 -674 -41 -44 -160 -174 -265 -289 -104 -115 -264 -291
-355 -391 -91 -100 -224 -246 -296 -326 -214 -237 -541 -597 -644 -709 -53
-58 -253 -278 -445 -490 -192 -212 -376 -414 -408 -450 -73 -79 -108 -151
-114 -234 -10 -117 41 -216 137 -270 46 -26 65 -30 125 -30 61 0 82 5 138 32
107 53 95 41 1070 1111 232 254 469 516 527 581 58 64 186 206 285 315 99 109
205 226 235 260 77 86 577 637 743 819 76 83 186 205 245 271 59 65 181 200
272 300 91 99 188 207 217 240 119 140 185 281 204 437 43 348 -198 638 -579
697 -83 13 -293 13 -372 0z m275 -279 c71 -7 178 -56 183 -83 3 -17 -2 -18
-60 -12 -47 5 -59 4 -48 -5 11 -8 -6 -9 -67 -4 -64 5 -90 3 -115 -9 -18 -8
-253 -58 -523 -111 -269 -53 -602 -118 -740 -146 -470 -92 -838 -160 -869
-159 l-31 1 28 8 c15 5 42 11 60 13 18 3 77 16 132 30 55 14 117 29 138 33 21
3 36 8 34 11 -3 2 -105 -17 -228 -42 -123 -25 -280 -54 -349 -64 -85 -13 -111
-19 -80 -20 44 -2 44 -2 20 -16 -35 -20 -112 -26 -205 -17 l-80 8 53 12 c29 7
72 13 95 13 34 1 28 3 -26 10 -38 5 -78 14 -90 20 -19 11 -20 12 -3 25 16 11
11 14 -43 25 -33 6 -69 17 -78 25 -17 12 -16 13 7 23 24 9 24 10 3 10 -12 1
-25 6 -28 11 -9 15 62 12 142 -4 38 -8 80 -17 93 -19 14 -3 45 -10 70 -17 39
-11 42 -14 25 -21 -12 -6 22 -8 90 -5 114 5 438 66 835 157 25 5 69 13 97 16
33 3 50 9 46 16 -4 7 5 8 26 4 18 -4 30 -3 26 2 -3 5 14 12 37 16 24 4 66 13
94 21 52 15 210 48 299 64 28 4 84 16 125 25 164 36 263 55 285 55 13 0 50 7
82 16 32 9 76 19 98 22 22 2 42 7 45 11 24 30 274 79 320 63 8 -3 42 -8 75
-12z m285 -285 c8 -9 10 -29 7 -50 -18 -108 -117 -233 -617 -780 -270 -295
-501 -553 -764 -855 -137 -157 -288 -328 -335 -380 -48 -52 -128 -142 -178
-200 -49 -58 -157 -180 -239 -271 -82 -91 -198 -221 -259 -289 -60 -68 -153
-171 -205 -229 -52 -58 -127 -142 -165 -186 -38 -44 -115 -129 -171 -190 -92
-101 -170 -191 -548 -632 -70 -83 -138 -156 -151 -163 -73 -39 -148 84 -102
167 13 23 138 165 322 367 55 60 138 152 184 205 46 53 151 169 234 258 82 90
159 176 171 192 12 16 58 69 103 118 220 240 609 671 789 873 110 124 276 306
369 405 92 99 234 252 314 340 80 88 209 227 286 310 369 396 765 833 792 873
23 33 36 27 29 -13 -11 -59 19 -32 39 37 29 93 65 129 95 93z m184 -27 c7 -29
4 -53 -17 -121 -15 -47 -27 -107 -27 -133 0 -64 -17 -90 -143 -221 -57 -59
-148 -162 -202 -228 -55 -66 -201 -224 -325 -350 -124 -127 -288 -300 -364
-385 -77 -85 -180 -198 -230 -250 -50 -52 -172 -183 -271 -290 -100 -107 -273
-294 -385 -414 -113 -121 -232 -249 -265 -286 -182 -202 -867 -940 -1015
-1095 -69 -71 -159 -168 -200 -215 -135 -153 -193 -210 -212 -210 -17 0 -22
10 -18 39 1 7 86 97 189 200 103 102 229 236 280 296 87 103 297 336 437 485
33 36 128 139 210 230 82 91 226 249 320 350 94 102 198 215 230 252 33 36
221 243 420 460 441 481 594 653 779 878 33 40 75 89 93 111 l33 38 34 -17
c19 -9 33 -22 31 -28 -6 -17 31 -10 54 11 22 20 27 51 8 58 -8 2 -13 22 -13
50 0 44 4 50 71 119 39 40 78 83 85 94 8 12 60 72 116 133 55 61 118 136 139
168 31 47 86 180 121 296 8 27 27 15 37 -25z m-1659 -78 c-861 -177 -1119
-230 -1210 -245 -119 -21 -335 -29 -410 -16 l-60 10 86 -4 c124 -6 325 11 474
39 72 14 450 90 840 170 391 79 721 144 735 144 14 0 -191 -44 -455 -98z
m1768 -148 c-10 -26 -18 -49 -18 -52 -1 -11 -37 -73 -55 -93 -10 -12 -36 -43
-57 -69 -52 -64 -400 -442 -568 -618 -219 -230 -511 -541 -621 -663 -56 -62
-119 -128 -140 -147 -21 -19 -5 1 36 46 129 138 261 284 396 434 71 80 199
222 284 316 179 195 454 525 520 621 25 36 54 71 65 77 39 22 86 83 128 166
36 72 42 80 45 57 2 -15 -5 -49 -15 -75z m-2624 -2964 c-45 -51 -216 -235
-379 -408 -163 -173 -318 -339 -345 -368 -27 -30 -58 -58 -69 -64 -18 -10 -18
-9 2 19 51 72 448 515 641 715 110 115 220 212 229 203 3 -2 -33 -46 -79 -97z"/>
<path d="M6612 7148 c-46 -113 -106 -217 -199 -340 l-73 -97 30 -25 c44 -36
69 -42 86 -18 7 11 34 44 59 73 131 155 164 201 194 274 37 87 35 122 -3 86
-25 -24 -36 -19 -36 15 0 46 -20 33 -54 -33 -42 -81 -45 -79 -11 6 15 35 24
68 22 75 -3 6 -9 -1 -15 -16z"/>
<path d="M7305 6806 c-33 -29 -103 -102 -155 -162 -156 -177 -274 -307 -475
-523 -104 -113 -304 -329 -444 -480 -270 -294 -496 -539 -682 -740 -63 -67
-152 -165 -199 -216 -47 -52 -195 -214 -330 -362 -932 -1020 -1054 -1163
-1136 -1336 -123 -263 -84 -565 99 -751 77 -78 229 -157 349 -181 153 -30 352
-15 638 50 63 15 297 64 520 110 223 46 468 98 545 115 77 17 291 63 475 101
852 178 901 186 1019 169 122 -17 235 -65 330 -140 48 -38 58 -42 94 -37 79
11 172 105 198 200 16 61 7 154 -21 212 -34 71 -150 182 -234 223 -38 18 -70
32 -72 30 -2 -2 22 -24 52 -48 60 -48 124 -115 124 -129 0 -5 -6 -11 -14 -13
-27 -6 2 -48 47 -67 45 -19 57 -35 57 -76 0 -26 -11 -36 -63 -54 -41 -14 -47
-12 -159 53 -119 69 -428 54 -713 -35 -27 -8 -87 -83 -86 -106 1 -12 -21 -17
-374 -88 -418 -84 -494 -95 -680 -95 -195 0 -388 -29 -925 -139 -321 -66 -318
-65 -332 -101 -9 -24 -72 -41 -173 -47 -87 -5 -175 8 -175 26 0 4 11 13 25 19
30 14 32 31 4 66 l-21 26 35 15 c40 16 122 31 257 45 52 6 137 21 190 35 52
14 138 34 190 45 273 59 449 113 458 138 5 15 -61 26 -108 18 -39 -6 -58 8
-22 17 14 4 14 5 -3 6 -11 0 -108 -17 -215 -39 -287 -60 -617 -120 -654 -120
-45 0 -119 23 -155 49 -39 28 -39 41 -2 41 34 0 61 9 61 19 0 4 -11 13 -25 19
-35 16 -33 36 3 28 l27 -7 -22 16 c-13 9 -23 23 -23 32 0 13 5 12 24 -7 25
-23 85 -39 141 -39 19 1 10 5 -28 13 -72 16 -108 42 -126 92 -23 66 -16 77
298 421 79 87 239 259 355 383 117 124 272 290 346 370 74 80 223 237 330 350
107 113 276 293 375 400 99 107 242 261 318 342 77 82 200 215 275 296 122
132 433 467 935 1007 105 112 177 199 193 230 47 97 40 244 -15 315 l-20 25 6
-63 c5 -55 3 -69 -20 -111 -20 -36 -25 -56 -20 -84 5 -36 2 -41 -133 -189
-513 -566 -1269 -1334 -1366 -1389 -46 -25 -34 -11 341 415 53 61 211 238 351
395 140 156 316 352 390 435 74 83 178 200 231 259 68 75 99 117 102 140 3 18
9 44 12 60 6 20 4 27 -7 27 -19 0 -61 -57 -48 -65 6 -3 10 -10 10 -15 0 -5
-48 -60 -107 -122 -60 -62 -155 -166 -213 -230 -129 -143 -519 -570 -669 -733
-26 -27 -116 -126 -201 -220 -85 -93 -222 -242 -305 -330 -149 -158 -278 -300
-425 -465 -41 -47 -124 -137 -185 -201 -60 -64 -175 -187 -255 -274 -80 -88
-179 -195 -221 -239 -106 -112 -359 -397 -427 -481 -75 -93 -313 -377 -327
-390 -48 -47 -164 -145 -170 -145 -14 0 4 90 30 143 38 80 118 180 229 286
286 273 561 562 781 821 165 194 257 295 331 360 77 68 198 195 419 440 186
206 376 412 470 510 196 205 479 524 630 710 38 46 128 143 200 215 71 72 152
157 180 190 27 33 71 83 97 112 58 63 65 103 19 103 -17 0 -33 5 -36 10 -9 15
-34 12 -59 -7 -12 -10 -62 -63 -111 -118 -48 -55 -123 -138 -165 -185 -42 -47
-153 -170 -245 -275 -93 -104 -221 -246 -284 -315 -64 -69 -200 -218 -302
-330 -420 -462 -636 -698 -1029 -1125 -102 -110 -295 -322 -430 -470 -135
-149 -279 -306 -321 -350 -290 -306 -443 -513 -489 -660 -28 -89 -132 -258
-155 -251 -15 4 -18 114 -5 176 7 30 21 73 33 95 22 45 100 147 142 185 15 14
37 38 48 55 l22 30 -32 -23 -32 -23 33 59 c43 76 148 203 346 417 86 94 237
258 336 365 98 107 262 285 364 395 102 110 228 247 280 305 121 135 257 283
445 485 166 178 488 529 696 760 75 83 144 157 154 165 29 24 296 320 339 375
21 28 -21 -11 -94 -85 -108 -111 -123 -123 -83 -70 26 35 144 162 262 282 118
120 211 221 208 225 -4 3 -18 1 -33 -5 -29 -14 -26 -4 9 36 34 37 15 25 -48
-32z"/>
<path d="M5580 6144 c-234 -257 -501 -551 -595 -654 -93 -102 -246 -271 -340
-375 -93 -103 -244 -270 -334 -369 -270 -298 -433 -478 -474 -526 -22 -25 -51
-58 -65 -73 l-25 -28 25 -44 c43 -80 399 -395 446 -395 13 0 123 116 457 485
274 302 536 587 775 845 187 202 882 961 968 1056 45 51 82 97 82 104 0 6 -12
36 -26 67 -43 91 -170 214 -318 309 l-29 18 8 -24 c8 -28 63 -90 80 -90 10 0
45 -50 45 -64 0 -11 -35 7 -61 31 -31 29 -44 20 -21 -16 13 -21 8 -19 -27 13
l-44 39 -66 -69 c-36 -38 -177 -193 -312 -344 -136 -151 -340 -378 -454 -505
-114 -126 -301 -333 -414 -459 -216 -241 -451 -501 -738 -820 -161 -178 -171
-192 -156 -208 9 -10 21 -18 28 -18 7 0 20 -10 31 -21 19 -22 19 -22 -4 -10
-22 12 -23 11 -13 -8 19 -35 12 -30 -56 40 l-67 69 26 28 c13 15 78 88 144
162 65 74 186 209 269 299 82 90 211 232 285 315 270 303 668 744 790 876 69
74 210 230 314 345 104 116 227 250 274 298 83 87 84 88 106 70 11 -10 24 -22
27 -27 4 -5 10 1 14 14 5 16 0 31 -15 52 -18 24 -20 32 -9 38 9 6 2 14 -24 26
-20 10 -39 15 -43 12 -8 -9 15 -50 26 -43 4 3 6 -4 3 -15 -6 -22 -18 -26 -28
-10 -9 15 -22 4 -40 -34 -14 -29 -308 -366 -320 -366 -12 0 1 16 90 120 53 61
94 110 92 110 -5 0 -259 -275 -648 -701 -384 -421 -497 -544 -789 -869 -156
-173 -311 -344 -344 -380 -34 -36 -105 -116 -158 -178 -54 -62 -98 -109 -98
-104 0 12 124 155 304 353 130 142 316 348 551 609 33 37 114 127 180 201 112
124 389 428 720 789 78 85 196 216 262 290 66 74 136 150 156 169 33 31 40 61
13 61 -6 0 -203 -210 -436 -466z m660 182 c0 3 11 -1 25 -10 22 -14 25 -15 25
-1 0 22 11 19 47 -15 18 -17 35 -30 39 -30 4 0 17 -8 28 -17 20 -17 20 -17 7
0 -15 19 -2 24 17 5 13 -13 17 -48 5 -48 -3 0 -21 11 -39 25 -19 15 -34 20
-36 14 -2 -7 -17 0 -36 16 -18 15 -32 23 -32 19 0 -4 -12 3 -27 17 -20 17 -23
18 -10 3 9 -11 17 -26 17 -32 0 -7 -33 -47 -73 -90 -40 -42 -133 -144 -207
-225 -74 -82 -175 -193 -225 -247 -49 -54 -175 -191 -280 -306 -397 -434 -444
-485 -605 -659 -91 -98 -183 -199 -205 -224 -22 -25 -100 -111 -175 -192 -74
-80 -189 -204 -255 -277 -66 -73 -123 -132 -126 -132 -3 0 -16 11 -29 25 l-23
24 25 33 c14 18 70 80 124 138 55 58 182 198 284 310 102 112 212 234 245 270
34 36 97 106 140 155 44 50 129 144 190 210 145 159 276 303 295 325 8 9 76
84 152 166 75 82 156 174 179 204 24 30 111 129 194 220 82 91 185 205 228
253 68 75 81 85 98 77 10 -6 19 -8 19 -4z m89 -133 c-18 -21 -132 -146 -254
-278 -122 -132 -357 -386 -522 -565 -165 -179 -308 -332 -319 -340 -10 -8 35
44 102 115 119 129 292 318 559 611 392 429 451 493 459 493 4 1 -7 -16 -25
-36z m80 -20 c-7 -10 -72 -81 -144 -158 -72 -77 -177 -192 -235 -255 -58 -63
-172 -187 -255 -275 -247 -264 -515 -553 -622 -670 -55 -60 -138 -149 -184
-196 -102 -103 -100 -101 432 481 108 118 229 252 270 296 134 148 616 668
677 732 56 58 91 84 61 45z"/>
<path d="M3605 3943 c-325 -362 -459 -604 -521 -938 -28 -146 -25 -403 5 -543
38 -181 112 -350 219 -502 63 -90 209 -233 315 -309 l88 -64 -118 -45 c-133
-51 -218 -94 -313 -160 -71 -49 -142 -103 -150 -113 -3 -4 -36 -26 -75 -51
-78 -50 -161 -74 -245 -71 -99 3 -185 3 -205 -1 -73 -15 -126 -33 -164 -58
-25 -15 -50 -28 -57 -28 -7 0 -35 -23 -64 -50 -29 -28 -57 -50 -62 -50 -14 0
-35 -27 -53 -68 -8 -18 -28 -50 -45 -70 -16 -20 -30 -42 -30 -49 0 -7 -4 -13
-10 -13 -5 0 -10 -9 -10 -19 0 -11 -4 -22 -9 -25 -5 -3 -12 -22 -15 -41 -4
-20 -16 -41 -26 -48 -11 -6 -20 -18 -20 -25 0 -8 -9 -25 -20 -39 -12 -15 -20
-20 -20 -12 0 12 -2 12 -9 0 -5 -8 -7 -20 -4 -28 3 -7 0 -13 -6 -13 -6 0 -11
-7 -11 -16 0 -22 -33 -61 -48 -56 -6 2 -12 10 -12 17 0 19 -27 26 -39 11 -6
-7 -8 -16 -4 -19 11 -12 -20 -38 -40 -33 -12 3 -28 -5 -44 -20 -17 -17 -31
-23 -45 -18 -11 3 -17 8 -14 11 3 4 1 12 -5 20 -10 11 -14 10 -26 -4 -8 -10
-12 -12 -8 -6 4 9 1 11 -9 7 -9 -3 -13 -10 -10 -15 3 -5 -1 -6 -9 -3 -9 3 -16
-3 -20 -15 -3 -14 -10 -19 -21 -15 -9 3 -16 1 -16 -6 0 -7 -6 -6 -16 4 -28 28
-29 17 -1 -12 31 -32 33 -39 12 -39 -8 0 -15 5 -15 10 0 6 -3 7 -7 4 -3 -4
-17 0 -30 8 -13 9 -23 11 -23 5 0 -5 -12 -10 -26 -10 -14 0 -22 4 -19 10 3 6
-1 7 -9 4 -9 -3 -16 -1 -16 6 0 6 -4 8 -10 5 -5 -3 -10 -1 -10 5 0 6 -5 8 -11
5 -6 -4 -8 -14 -4 -22 5 -14 3 -14 -12 -2 -34 26 -42 37 -35 43 3 4 -1 4 -10
1 -20 -8 -61 12 -52 26 6 11 -13 39 -27 39 -5 0 -6 -7 -3 -15 9 -23 -6 -18
-27 9 -13 16 -27 23 -44 21 -14 -1 -28 2 -31 7 -3 5 -15 6 -27 2 -22 -6 -22
-6 -2 10 18 14 19 15 2 16 -12 0 -16 4 -11 13 5 8 2 7 -9 -2 -15 -12 -19 -12
-31 5 -11 15 -12 22 -3 34 10 13 10 13 -4 3 -21 -16 -60 -5 -98 29 -17 16 -35
28 -41 28 -5 0 -10 5 -10 11 0 13 -30 44 -44 44 -6 1 -14 -3 -17 -8 -3 -4 -12
-1 -19 8 -11 13 -10 15 3 10 8 -4 18 0 23 7 4 7 4 10 -1 6 -4 -4 -16 -3 -27 3
-13 7 -23 7 -32 0 -8 -7 -12 -5 -13 10 -1 11 2 17 7 14 4 -3 10 2 13 10 5 12
2 12 -18 3 -13 -6 -22 -15 -18 -20 3 -6 -4 -5 -16 1 -21 12 -47 50 -43 64 1 5
-2 6 -7 3 -13 -8 -43 23 -35 36 4 6 3 9 -2 6 -11 -6 -45 28 -36 36 3 3 -2 6
-11 6 -10 0 -17 5 -17 11 0 6 -9 8 -20 4 -15 -5 -20 -2 -20 14 0 11 -4 22 -9
25 -4 3 -6 18 -3 33 4 23 2 26 -9 16 -18 -18 -32 -16 -25 2 3 8 1 15 -5 15 -5
0 -27 11 -47 25 -20 14 -33 25 -29 25 5 0 -4 11 -19 25 l-28 26 -13 -23 c-12
-22 -12 -22 -14 -3 -1 11 -2 29 -1 40 0 11 -1 15 -4 8 -4 -8 -15 -9 -36 -2
-17 4 -34 6 -39 4 -4 -3 -4 8 1 25 6 23 5 30 -5 30 -7 0 -16 7 -19 16 -4 9
-13 14 -21 10 -10 -3 -15 1 -15 12 0 14 -2 14 -9 3 -7 -10 -11 -6 -15 17 -4
16 -16 38 -26 47 -18 16 -18 17 1 36 11 11 17 25 13 31 -5 7 -10 3 -16 -11 -6
-18 -11 -21 -22 -12 -7 6 -17 7 -21 3 -5 -4 -6 -2 -2 3 3 6 -1 19 -9 30 -8 10
-14 15 -14 10 0 -5 -7 0 -16 11 -8 10 -13 13 -9 7 4 -8 0 -13 -9 -13 -8 0 -16
5 -18 11 -3 9 -9 9 -25 1 -23 -13 -32 -2 -34 41 -1 20 -2 20 -9 -3 -4 -14 -8
-334 -9 -713 l-1 -687 3718 2 3717 3 -1 23 c0 12 3 22 7 22 4 0 6 9 4 20 -2
11 -1 19 3 19 19 -3 32 2 32 12 0 6 7 17 15 26 8 8 12 20 8 26 -3 7 3 4 15 -7
21 -18 21 -18 41 15 12 19 21 39 21 46 0 6 10 20 23 30 12 10 36 45 52 78 16
32 39 69 52 81 13 12 23 26 23 33 0 6 5 11 10 11 6 0 10 6 10 13 0 7 25 54 55
105 30 51 55 95 55 98 0 3 6 20 14 37 81 181 112 424 70 549 -33 100 -167 208
-258 208 -26 0 -75 -16 -146 -50 -126 -58 -181 -67 -312 -51 -51 6 -113 13
-138 16 -25 3 -72 10 -105 15 -33 5 -96 12 -140 16 -44 3 -89 8 -100 10 -45 9
-638 77 -945 109 -375 38 -358 36 -333 46 12 4 165 38 340 74 175 36 548 115
828 175 666 142 671 143 785 138 120 -5 170 -30 229 -116 47 -70 77 -87 150
-86 68 0 123 27 174 83 56 62 70 97 75 187 8 140 -42 235 -171 331 -105 77
-278 154 -341 152 -12 0 13 -10 54 -22 68 -21 127 -46 107 -47 -4 0 -40 10
-80 21 -59 18 -107 23 -261 26 -214 6 -229 19 -38 33 l117 9 -120 -4 c-66 -2
-172 -13 -235 -24 -202 -36 -834 -165 -1475 -301 -988 -209 -1010 -213 -1195
-207 -255 9 -397 64 -541 207 -127 127 -183 255 -195 450 -18 278 77 486 376
819 49 55 90 107 90 114 0 8 -7 20 -15 27 -8 7 -15 22 -15 34 0 15 -33 54 -97
118 -106 103 -119 112 -175 122 -30 5 -38 12 -38 28 0 17 -2 18 -15 8 -12 -10
-18 -10 -30 0 -8 7 -15 19 -15 26 0 11 6 11 27 3 l27 -10 -19 22 c-21 22 -67
49 -85 49 -5 0 -10 -6 -10 -14 0 -8 -5 -18 -10 -21 -7 -4 -9 2 -4 19 3 14 5
26 3 26 -2 0 -31 -30 -64 -67z m134 -119 c47 -62 49 -79 6 -37 -16 16 -25 22
-21 16 4 -8 -17 -41 -56 -85 -74 -86 -96 -115 -132 -183 -24 -46 -18 -41 90
70 106 110 111 114 57 45 -32 -41 -75 -100 -95 -130 -20 -30 -56 -81 -80 -112
-38 -51 -128 -215 -149 -273 -4 -11 -10 -49 -13 -85 -9 -107 -16 -141 -34
-174 -25 -47 -24 -361 2 -504 11 -56 16 -106 12 -110 -11 -10 -63 54 -98 122
-74 145 -107 412 -74 588 31 164 122 394 203 511 31 44 229 269 321 363 6 7
12 17 12 23 0 18 6 13 49 -45z m161 -186 c0 -5 -5 -6 -11 -3 -6 4 -18 -3 -27
-16 -9 -13 -51 -64 -92 -114 -199 -236 -250 -323 -285 -492 -32 -152 -78 -333
-85 -333 -4 0 -14 16 -24 37 -20 41 -36 273 -19 273 5 0 20 30 33 67 13 36 61
129 108 206 46 77 95 162 108 191 13 28 35 65 50 81 14 17 22 23 18 15 -7 -13
-5 -13 8 -2 9 7 24 29 33 48 9 19 27 39 41 44 13 5 24 13 24 17 0 5 9 14 21
21 18 12 24 11 47 -10 22 -18 23 -19 9 -2 -28 34 -19 40 13 9 17 -16 30 -33
30 -37z m8 -136 c-233 -247 -356 -463 -397 -696 -14 -79 -14 -179 0 -171 6 4
13 -2 16 -14 3 -12 9 -21 13 -21 4 0 13 -37 20 -82 19 -132 93 -306 147 -349
17 -13 17 -12 3 6 -7 11 11 -4 40 -34 63 -63 164 -131 193 -131 19 0 20 1 2
20 -28 31 -3 26 137 -26 144 -54 164 -67 92 -62 -45 3 -50 1 -41 -13 32 -50
292 -81 512 -60 115 11 380 63 685 135 229 54 363 93 525 150 83 29 221 71
308 92 114 28 152 41 135 45 -20 6 -20 7 -3 8 11 1 31 4 45 6 22 5 22 4 5 -4
-24 -12 -9 -13 36 -4 26 5 29 8 14 13 -19 7 31 19 334 81 79 16 145 28 148 26
2 -2 -36 -13 -83 -23 -48 -10 -82 -20 -76 -22 6 -2 55 6 109 17 201 41 326 55
493 55 145 1 174 -2 237 -22 40 -12 75 -27 79 -33 3 -6 41 -33 83 -61 103 -67
127 -106 41 -66 -51 23 -90 31 -90 17 0 -4 14 -15 30 -24 17 -9 30 -13 30 -11
0 8 75 -21 165 -64 94 -44 88 -34 85 -150 -2 -97 -47 -173 -72 -124 -6 10 -43
51 -83 90 -106 104 -181 134 -248 100 -15 -8 -35 -13 -45 -12 -159 30 -306 8
-418 -64 -17 -11 -66 -29 -110 -40 -150 -39 -672 -139 -830 -160 -398 -53
-592 -85 -1024 -170 -237 -47 -274 -59 -278 -89 -10 -63 -296 -115 -438 -80
-53 14 -61 23 -43 56 12 22 11 26 -10 43 -14 9 -22 24 -19 32 9 22 140 54 339
82 103 15 249 42 325 61 77 18 180 43 229 55 152 36 335 90 365 109 l30 18
-23 10 c-12 6 -31 14 -42 18 l-20 7 20 8 c48 20 -34 6 -570 -100 -385 -76
-476 -86 -636 -71 -259 23 -421 87 -591 234 -73 63 -130 137 -185 240 -24 45
-41 71 -37 57 16 -61 72 -151 149 -241 25 -29 45 -61 45 -72 0 -16 -4 -16 -37
9 -117 84 -219 298 -242 508 -29 255 62 531 251 767 82 102 222 259 232 259 5
0 -21 -31 -56 -68z"/>
</g>
</svg>
